<svg width="196" height="24" viewBox="0 0 196 24" fill="none" xmlns="http://www.w3.org/2000/svg">
<rect x="165" y="11" width="31" height="13" rx="2" fill="#4D9F00"/>
<path d="M170.402 14.217H172.388C173.249 14.217 173.902 14.3437 174.345 14.597C174.795 14.8503 175.019 15.2873 175.019 15.908C175.019 16.3007 174.912 16.63 174.696 16.896C174.487 17.162 174.187 17.3298 173.794 17.3995V17.447C174.06 17.4977 174.301 17.5832 174.516 17.7035C174.738 17.8175 174.912 17.9853 175.038 18.207C175.165 18.4223 175.228 18.7073 175.228 19.062C175.228 19.6827 175.013 20.1608 174.582 20.4965C174.152 20.8322 173.569 21 172.834 21H170.402V14.217ZM171.428 17.048H172.559C173.091 17.048 173.455 16.9625 173.651 16.7915C173.854 16.6205 173.955 16.3672 173.955 16.0315C173.955 15.6958 173.832 15.4552 173.585 15.3095C173.344 15.1575 172.964 15.0815 172.445 15.0815H171.428V17.048ZM171.428 17.884V20.145H172.673C173.218 20.145 173.598 20.0373 173.813 19.822C174.035 19.6067 174.145 19.3217 174.145 18.967C174.145 18.644 174.031 18.3843 173.803 18.188C173.582 17.9853 173.183 17.884 172.606 17.884H171.428Z" fill="white"/>
<path d="M179.012 15.7845C179.683 15.7845 180.212 15.9935 180.598 16.4115C180.985 16.8232 181.178 17.3868 181.178 18.1025V18.6535H177.739C177.752 19.1792 177.888 19.5813 178.147 19.86C178.413 20.1387 178.784 20.278 179.259 20.278C179.588 20.278 179.88 20.2495 180.133 20.1925C180.393 20.1292 180.659 20.0373 180.931 19.917V20.753C180.671 20.8733 180.412 20.9588 180.152 21.0095C179.892 21.0665 179.582 21.095 179.221 21.095C178.727 21.095 178.29 20.9968 177.91 20.8005C177.53 20.6042 177.232 20.3128 177.017 19.9265C176.808 19.5402 176.703 19.0588 176.703 18.4825C176.703 17.9062 176.798 17.4185 176.988 17.0195C177.185 16.6205 177.454 16.3165 177.796 16.1075C178.144 15.8922 178.55 15.7845 179.012 15.7845ZM179.012 16.5635C178.651 16.5635 178.36 16.6807 178.138 16.915C177.923 17.1493 177.796 17.4818 177.758 17.9125H180.171C180.165 17.5135 180.066 17.1905 179.876 16.9435C179.693 16.6902 179.405 16.5635 179.012 16.5635Z" fill="white"/>
<path d="M184.752 20.278C185.037 20.278 185.294 20.2368 185.522 20.1545V20.9145C185.414 20.9652 185.269 21.0063 185.085 21.038C184.901 21.076 184.718 21.095 184.534 21.095C184.255 21.095 183.999 21.0475 183.764 20.9525C183.536 20.8575 183.353 20.6928 183.213 20.4585C183.074 20.2242 183.004 19.898 183.004 19.48V16.649H182.292V16.193L183.042 15.813L183.394 14.73H184.011V15.8795H185.474V16.649H184.011V19.461C184.011 19.7397 184.078 19.9455 184.211 20.0785C184.35 20.2115 184.531 20.278 184.752 20.278Z" fill="white"/>
<path d="M189.007 15.7845C189.646 15.7845 190.124 15.927 190.441 16.212C190.764 16.4907 190.926 16.9308 190.926 17.5325V21H190.213L190.014 20.2875H189.976C189.754 20.5662 189.52 20.772 189.273 20.905C189.032 21.0317 188.696 21.095 188.266 21.095C187.803 21.095 187.42 20.9715 187.116 20.7245C186.812 20.4712 186.66 20.0785 186.66 19.5465C186.66 19.0208 186.856 18.625 187.249 18.359C187.648 18.0867 188.253 17.9378 189.064 17.9125L189.938 17.884V17.599C189.938 17.2253 189.852 16.9625 189.681 16.8105C189.51 16.6522 189.269 16.573 188.959 16.573C188.699 16.573 188.449 16.611 188.209 16.687C187.968 16.763 187.737 16.8548 187.515 16.9625L187.192 16.231C187.433 16.1043 187.708 15.9998 188.019 15.9175C188.335 15.8288 188.665 15.7845 189.007 15.7845ZM189.928 18.5395L189.244 18.5585C188.661 18.5838 188.256 18.682 188.028 18.853C187.806 19.024 187.696 19.2583 187.696 19.556C187.696 19.822 187.775 20.0152 187.933 20.1355C188.091 20.2558 188.297 20.316 188.551 20.316C188.943 20.316 189.269 20.2052 189.529 19.9835C189.795 19.7618 189.928 19.4293 189.928 18.986V18.5395Z" fill="white"/>
<path d="M67.7794 0.117584H66.25V7.97056H67.7794V0.117584Z" fill="#1E1F21"/>
<path d="M76.103 7.99999L72.9853 3.14703V7.99999H71.4559V0.117599H72.8088L75.9265 4.94115V0.117599H77.4559V7.99999H76.103Z" fill="#1E1F21"/>
<path d="M84.103 1.49996V7.99999H82.5736V1.49996H80.5148V0.117599H86.1619V1.49996H84.103Z" fill="#1E1F21"/>
<path d="M89.2206 7.99999V0.117599H94.4266V1.49996H90.7795V3.3235H93.8677V4.70586H90.7795V6.61763H94.4266V7.99999H89.2206Z" fill="#1E1F21"/>
<path d="M101.897 7.99999L100.368 4.85292H99.2502V7.99999H97.7208V0.117599H100.809C102.397 0.117599 103.368 1.20584 103.368 2.52938C103.368 3.64703 102.691 4.3235 101.927 4.58821L103.691 7.97058H101.897V7.99999ZM100.721 1.49996H99.2796V3.5882H100.721C101.397 3.5882 101.838 3.14703 101.838 2.55879C101.838 1.91172 101.397 1.49996 100.721 1.49996Z" fill="#1E1F21"/>
<path d="M112.368 7.99999V3.41173L110.868 6.38234H109.809L108.309 3.41173V7.99999H106.78V0.117599H108.28L110.338 4.38233L112.368 0.117599H113.897V7.99999H112.368Z" fill="#1E1F21"/>
<path d="M117.544 7.99999V0.117599H122.721V1.49996H119.074V3.3235H122.192V4.70586H119.074V6.61763H122.721V7.99999H117.544Z" fill="#1E1F21"/>
<path d="M130.956 7.23528C130.427 7.7647 129.691 7.99999 128.868 7.99999H126.015V0.117599H128.868C129.691 0.117599 130.427 0.352894 130.956 0.882309C131.839 1.76467 131.75 2.85291 131.75 4.02938C131.75 5.20586 131.839 6.35292 130.956 7.23528ZM129.897 1.97055C129.633 1.64702 129.28 1.47055 128.75 1.47055H127.603V6.58822H128.75C129.28 6.58822 129.633 6.41175 129.897 6.08822C130.191 5.73527 130.221 5.17645 130.221 3.97056C130.221 2.8235 130.162 2.32349 129.897 1.97055Z" fill="#1E1F21"/>
<path d="M136.662 0.117599H135.133V7.97058H136.662V0.117599Z" fill="#1E1F21"/>
<path d="M144.78 8.00004L144.309 6.61769H141.545L141.074 8.00004H139.486L142.339 0.147064H143.545L146.427 8.00004H144.78ZM142.956 2.44119L141.956 5.29415H143.898L142.956 2.44119Z" fill="#1E1F21"/>
<path d="M72.6742 24V23.2584H66.8343V18.8244H71.809V18.0829H66.8343V13.7416H72.6742V13H66V24H72.6742Z" fill="black"/>
<path d="M83.5 24L80.1011 18.361L83.2528 13H82.2949L79.6531 17.6194L77.0267 13H76.0534L79.2051 18.361L75.8371 24H76.7795L79.6531 19.1025L82.5267 24H83.5Z" fill="black"/>
<path d="M93.2907 13.7416V13H85.8904V13.7416H89.1657V24H90V13.7416H93.2907Z" fill="black"/>
<path d="M102.674 24V23.2584H96.8343V18.8244H101.809V18.0829H96.8343V13.7416H102.674V13H96V24H102.674Z" fill="black"/>
<path d="M114.018 24V13H113.184V22.5323L106.834 13H106V24H106.834V14.4368L113.184 24H114.018Z" fill="black"/>
<path d="M126.508 18.5C126.508 16.8624 126.493 15.0548 125.442 14.0042C124.778 13.3399 123.851 13 122.692 13H119V24H122.692C123.851 24 124.778 23.6601 125.442 22.9958C126.493 21.9452 126.508 20.1376 126.508 18.5ZM125.674 18.5C125.674 19.9522 125.674 21.5435 124.855 22.4087C124.222 23.073 123.372 23.2584 122.492 23.2584H119.834V13.7416H122.492C123.372 13.7416 124.222 13.927 124.855 14.5913C125.674 15.4565 125.674 17.0478 125.674 18.5Z" fill="black"/>
<path d="M143.118 24L139.071 13H138.329L134.281 24H135.177L136.135 21.3272H141.264L142.222 24H143.118ZM138.7 14.1124L141.002 20.5857H136.398L138.7 14.1124Z" fill="black"/>
<path d="M153.354 16.1671C153.354 14.1587 151.933 13 150.032 13H146V24H146.834V19.3343H150.032C151.933 19.3343 153.354 18.1756 153.354 16.1671ZM152.52 16.1671C152.52 17.8202 151.469 18.5927 149.94 18.5927H146.834V13.7416H149.94C151.469 13.7416 152.52 14.514 152.52 16.1671Z" fill="black"/>
<path d="M158 24V13H157.166V24H158Z" fill="black"/>
<path d="M152 2.5C152 1.11879 150.881 0 149.5 0C148.119 0 147 1.11879 147 2.5C147 3.88122 148.119 5 149.5 5C150.881 5 152 3.88122 152 2.5ZM151.496 2.5C151.496 3.6395 150.619 4.53729 149.5 4.53729C148.381 4.53729 147.497 3.6395 147.497 2.5C147.497 1.3605 148.381 0.462707 149.5 0.462707C150.619 0.462707 151.496 1.3605 151.496 2.5ZM150.584 3.84669L149.983 2.70718C150.28 2.60359 150.515 2.35497 150.515 1.97514C150.515 1.52624 150.156 1.14641 149.645 1.14641H148.63V3.84669H149.127V2.77624H149.472L150.025 3.84669H150.584ZM150.025 1.97514C150.025 2.20304 149.845 2.3826 149.583 2.3826H149.127V1.56768H149.583C149.845 1.56768 150.025 1.74724 150.025 1.97514Z" fill="black"/>
<path d="M57 0H48V24H57V0Z" fill="#FF960C"/>
<path d="M9 0H0V24H9V0Z" fill="#00A4FF"/>
<path d="M25 0H16V24H25V0Z" fill="#83C708"/>
<path d="M41 0H32V24H41V0Z" fill="#FA373B"/>
</svg>
